<svg xmlns="http://www.w3.org/2000/svg">
    <symbol id="telegram" viewBox="0 0 32 33">
        <g>
            <path d="M16 0.5C7.16344 0.5 0 7.66344 0 16.5C0 25.3366 7.16344 32.5 16 32.5C24.8366 32.5 32 25.3366 32 16.5C32 7.66344 24.8366 0.5 16 0.5ZM24.3162 10.621L21.4744 24.1875C21.4401 24.3516 21.365 24.5044 21.2561 24.6319C21.1473 24.7594 21.0081 24.8575 20.8515 24.9172C20.6948 24.9769 20.5257 24.9963 20.3596 24.9735C20.1935 24.9508 20.0357 24.8867 19.9009 24.7871L15.7674 21.7332L13.2631 24.0958C13.2303 24.1267 13.1917 24.1508 13.1495 24.1666C13.1074 24.1824 13.0624 24.1897 13.0174 24.188C12.9724 24.1863 12.9281 24.1756 12.8873 24.1566C12.8464 24.1376 12.8097 24.1107 12.7794 24.0774L12.7256 24.0182L13.1607 19.8073L21.0034 12.6416C21.0422 12.6062 21.0663 12.5576 21.071 12.5053C21.0757 12.453 21.0607 12.4009 21.0288 12.3592C20.9969 12.3175 20.9506 12.2892 20.8989 12.28C20.8472 12.2707 20.794 12.2812 20.7496 12.3093L10.7197 18.6574L6.4 17.2067C6.28514 17.1681 6.18504 17.0949 6.11342 16.9972C6.0418 16.8995 6.00218 16.7819 5.99998 16.6608C5.99779 16.5397 6.03314 16.4208 6.10118 16.3205C6.16922 16.2203 6.26661 16.1435 6.38 16.1008L23.2812 9.734C23.4116 9.68494 23.5528 9.6718 23.69 9.69596C23.8272 9.72012 23.9553 9.78069 24.0611 9.87134C24.1669 9.962 24.2464 10.0794 24.2912 10.2113C24.3361 10.3431 24.3447 10.4847 24.3162 10.621Z" fill="currentColor"/>
        </g>
    </symbol>
    <symbol id="vk" viewBox="0 0 32 33">
        <g>
            <path d="M16 0.5C7.16344 0.5 0 7.66344 0 16.5C0 25.3366 7.16344 32.5 16 32.5C24.8366 32.5 32 25.3366 32 16.5C32 7.66344 24.8366 0.5 16 0.5ZM24.5227 21.9312H22.4924C22.2725 21.9315 22.0554 21.8822 21.8571 21.787C21.6589 21.6917 21.4847 21.5531 21.3475 21.3813C20.7386 20.6168 19.5391 19.2614 18.2797 18.6792C18.2067 18.645 18.1264 18.6298 18.046 18.635C17.9656 18.6401 17.8878 18.6654 17.8198 18.7086C17.7518 18.7518 17.6958 18.8114 17.6569 18.8819C17.6181 18.9524 17.5976 19.0316 17.5974 19.1122V21.1202C17.5975 21.2267 17.5765 21.3322 17.5358 21.4306C17.495 21.529 17.4353 21.6184 17.36 21.6937C17.2847 21.769 17.1953 21.8287 17.0969 21.8695C16.9985 21.9103 16.8931 21.9312 16.7866 21.9312H15.8477C14.6269 21.9312 11.9978 21.1881 9.90281 18.1363C8.11781 15.5363 7.32213 13.5213 6.85813 11.8876C6.83115 11.7918 6.82673 11.6911 6.84522 11.5934C6.86371 11.4956 6.9046 11.4035 6.96468 11.3242C7.02477 11.2449 7.10241 11.1806 7.19152 11.1364C7.28062 11.0922 7.37877 11.0692 7.47825 11.0693H9.53213C9.73703 11.0691 9.93653 11.135 10.1009 11.2573C10.2653 11.3796 10.3859 11.5518 10.4446 11.7481C10.8266 13.0255 11.8158 15.7812 13.5644 17.1534C13.6178 17.1955 13.6818 17.2216 13.7493 17.229C13.8168 17.2363 13.885 17.2245 13.9461 17.1949C14.0072 17.1653 14.0587 17.1191 14.0948 17.0616C14.1309 17.0041 14.1501 16.9376 14.1501 16.8697V13.6531C14.1501 13.0174 13.8746 12.3814 13.4446 11.8843C13.3827 11.813 13.3425 11.7254 13.329 11.6319C13.3154 11.5385 13.329 11.4431 13.3682 11.3571C13.4074 11.2712 13.4705 11.1983 13.5499 11.1472C13.6293 11.0961 13.7218 11.0689 13.8162 11.0689H16.9829C17.1459 11.0689 17.3023 11.1337 17.4176 11.249C17.5329 11.3643 17.5977 11.5207 17.5977 11.6838V16.0166C17.5978 16.0793 17.615 16.1408 17.6477 16.1944C17.6803 16.2479 17.7271 16.2915 17.7828 16.3202C17.8385 16.349 17.9011 16.3618 17.9637 16.3574C18.0262 16.353 18.0864 16.3314 18.1375 16.2951C18.7188 15.8813 19.2166 15.2701 19.6744 14.583C20.2507 13.7188 20.9539 12.2901 21.3066 11.5487C21.3749 11.4051 21.4825 11.2837 21.617 11.1988C21.7514 11.1138 21.9072 11.0687 22.0662 11.0688H24.3062C24.3998 11.0687 24.4918 11.0926 24.5735 11.138C24.6553 11.1835 24.724 11.2491 24.7733 11.3286C24.8226 11.4081 24.8508 11.4989 24.8551 11.5923C24.8595 11.6857 24.84 11.7787 24.7983 11.8625C24.2331 12.9963 23.1321 15.0761 22.0961 16.2964C21.9478 16.4719 21.8752 16.699 21.8942 16.928C21.9133 17.1569 22.0223 17.369 22.1976 17.5176C22.8729 18.0946 23.9271 19.1614 25.0637 20.9382C25.1265 21.0354 25.1618 21.1478 25.1661 21.2634C25.1703 21.3791 25.1434 21.4937 25.088 21.5953C25.0326 21.6969 24.9509 21.7818 24.8514 21.8409C24.752 21.9 24.6384 21.9312 24.5227 21.9312Z" fill="currentColor"/>
        </g>
    </symbol>
    <symbol id="github" viewBox="0 0 32 33">
        <g>
            <path fill-rule="evenodd" clip-rule="evenodd" d="M16 0.5C7.16429 0.5 0 7.84286 0 16.9071C0 24.1571 4.58571 30.3 10.9429 32.4714C11.7429 32.6214 12.0357 32.1143 12.0357 31.6786C12.0357 31.2857 12.0214 30.2571 12.0143 28.8857C7.56429 29.8786 6.62143 26.6857 6.62143 26.6857C5.89286 24.7929 4.84286 24.2857 4.84286 24.2857C3.39286 23.2643 4.95 23.2857 4.95 23.2857C6.55714 23.4 7.4 24.9786 7.4 24.9786C8.82857 27.4857 11.1429 26.7643 12.0571 26.3429C12.2 25.2857 12.6143 24.5571 13.0714 24.15C9.52143 23.7357 5.78571 22.3286 5.78571 16.0429C5.78571 14.25 6.40714 12.7857 7.42857 11.6429C7.26429 11.2286 6.71429 9.55714 7.58571 7.3C7.58571 7.3 8.92857 6.85714 11.9857 8.97857C13.2643 8.61429 14.6286 8.43571 15.9929 8.42857C17.35 8.43571 18.7214 8.61429 20 8.97857C23.0571 6.85714 24.3929 7.3 24.3929 7.3C25.2643 9.55714 24.7143 11.2286 24.55 11.6429C25.5714 12.7929 26.1929 14.2571 26.1929 16.0429C26.1929 22.3429 22.45 23.7286 18.8857 24.1357C19.4571 24.6429 19.9714 25.6429 19.9714 27.1714C19.9714 29.3643 19.95 31.1357 19.95 31.6714C19.95 32.1071 20.2357 32.6214 21.05 32.4571C27.4214 30.2929 32 24.15 32 16.9071C32 7.84286 24.8357 0.5 16 0.5Z" fill="currentColor"/>
        </g>
    </symbol>
</svg>
