<?xml version="1.0" encoding="UTF-8" standalone="no" ?>
<!DOCTYPE svg PUBLIC "-//W3C//DTD SVG 1.1//EN" "http://www.w3.org/Graphics/SVG/1.1/DTD/svg11.dtd">
<svg xmlns="http://www.w3.org/2000/svg" xmlns:xlink="http://www.w3.org/1999/xlink" version="1.1" width="400" height="400" viewBox="0 0 400 400" xml:space="preserve">
<desc>Created with Fabric.js 3.6.2</desc>
<defs>
</defs>
<g transform="matrix(10 0 0 10 200 200)"  >
<path style="stroke: none; stroke-width: 1; stroke-dasharray: none; stroke-linecap: butt; stroke-dashoffset: 0; stroke-linejoin: miter; stroke-miterlimit: 4; fill: rgb(56,189,248); fill-rule: nonzero; opacity: 1;"  transform=" translate(-12, -12)" d="M 18.5 9.51 a 4.22 4.22 0 0 1 -1.91 -1.34 A 5.77 5.77 0 0 0 12 6 a 4.72 4.72 0 0 0 -5 4 a 3.23 3.23 0 0 1 3.5 -1.49 a 4.32 4.32 0 0 1 1.91 1.35 A 5.77 5.77 0 0 0 17 12 a 4.72 4.72 0 0 0 5 -4 a 3.2 3.2 0 0 1 -3.5 1.51 z m -13 4.98 a 4.22 4.22 0 0 1 1.91 1.34 A 5.77 5.77 0 0 0 12 18 a 4.72 4.72 0 0 0 5 -4 a 3.23 3.23 0 0 1 -3.5 1.49 a 4.32 4.32 0 0 1 -1.91 -1.35 A 5.8 5.8 0 0 0 7 12 a 4.72 4.72 0 0 0 -5 4 a 3.2 3.2 0 0 1 3.5 -1.51 z" stroke-linecap="round" />
</g>
</svg>